<svg width="60" height="60" viewBox="0 0 60 60" fill="none" xmlns="http://www.w3.org/2000/svg">
<rect width="60" height="60" rx="20" fill="#CCCCCC"/>
<path d="M30 22.5C29.175 22.5 28.5 23.175 28.5 24V28.5H24C23.175 28.5 22.5 29.175 22.5 30C22.5 30.825 23.175 31.5 24 31.5H28.5V36C28.5 36.825 29.175 37.5 30 37.5C30.825 37.5 31.5 36.825 31.5 36V31.5H36C36.825 31.5 37.5 30.825 37.5 30C37.5 29.175 36.825 28.5 36 28.5H31.5V24C31.5 23.175 30.825 22.5 30 22.5ZM30 15C21.72 15 15 21.72 15 30C15 38.28 21.72 45 30 45C38.28 45 45 38.28 45 30C45 21.72 38.28 15 30 15ZM30 42C23.385 42 18 36.615 18 30C18 23.385 23.385 18 30 18C36.615 18 42 23.385 42 30C42 36.615 36.615 42 30 42Z" fill="#2B2C2B"/>
</svg>
