<svg width="24" height="24" viewBox="0 0 24 24" fill="none" xmlns="http://www.w3.org/2000/svg">
<path d="M7.21207 17.3327C7.21207 17.5095 7.143 17.6791 7.02005 17.8041C6.8971 17.9291 6.73035 17.9993 6.55647 17.9993C6.3826 17.9993 6.21585 17.9291 6.0929 17.8041C5.96995 17.6791 5.90088 17.5095 5.90088 17.3327C5.90088 17.1559 5.96995 16.9863 6.0929 16.8613C6.21585 16.7363 6.3826 16.666 6.55647 16.666C6.73035 16.666 6.8971 16.7363 7.02005 16.8613C7.143 16.9863 7.21207 17.1559 7.21207 17.3327Z" fill="#2B2C2B"/>
<path fill-rule="evenodd" clip-rule="evenodd" d="M2.62305 17.334C2.62305 16.2731 3.03748 15.2557 3.77516 14.5056C4.51285 13.7554 5.51337 13.334 6.55661 13.334C7.59986 13.334 8.60038 13.7554 9.33807 14.5056C10.0758 15.2557 10.4902 16.2731 10.4902 17.334C10.4902 18.3948 10.0758 19.4123 9.33807 20.1624C8.60038 20.9126 7.59986 21.334 6.55661 21.334C5.51337 21.334 4.51285 20.9126 3.77516 20.1624C3.03748 19.4123 2.62305 18.3948 2.62305 17.334ZM6.55661 14.6673C5.86112 14.6673 5.1941 14.9483 4.70231 15.4484C4.21052 15.9485 3.93424 16.6267 3.93424 17.334C3.93424 18.0412 4.21052 18.7195 4.70231 19.2196C5.1941 19.7197 5.86112 20.0006 6.55661 20.0006C7.25211 20.0006 7.91912 19.7197 8.41091 19.2196C8.90271 18.7195 9.17899 18.0412 9.17899 17.334C9.17899 16.6267 8.90271 15.9485 8.41091 15.4484C7.91912 14.9483 7.25211 14.6673 6.55661 14.6673Z" fill="#2B2C2B"/>
<path fill-rule="evenodd" clip-rule="evenodd" d="M1.31184 0V1.33333H3.42286L5.7299 10.7193C2.49913 11.1327 0 13.936 0 17.3333C0 21.0153 2.93575 24 6.55594 24C10.1774 24 13.1119 21.0153 13.1119 17.3333C13.1119 16.6367 13.007 15.9647 12.8123 15.3333H16.3905V20.1133C15.9531 20.2708 15.5845 20.5803 15.3499 20.9873C15.1152 21.3943 15.0295 21.8725 15.1079 22.3376C15.1863 22.8026 15.4239 23.2244 15.7785 23.5286C16.1332 23.8328 16.5821 23.9998 17.0461 24C17.5106 24.0007 17.9603 23.8342 18.3157 23.53C18.671 23.2259 18.909 22.8036 18.9875 22.3381C19.066 21.8726 18.98 21.3938 18.7447 20.9866C18.5093 20.5794 18.1399 20.2701 17.7017 20.1133V16.1613L21.6818 20.2093L24 17.852L23.073 16.9093L21.6818 18.3233L17.7017 14.276V13.3333C17.7017 12.8029 17.4945 12.2942 17.1256 11.9191C16.7568 11.544 16.2565 11.3333 15.7349 11.3333H15.0793V9.33333C15.0793 8.8029 14.8721 8.29419 14.5033 7.91912C14.1344 7.54405 13.6342 7.33333 13.1125 7.33333H6.24847L4.44559 0H1.31184ZM6.57627 8.66667L7.07321 10.6867C7.88763 10.7509 8.68291 10.9703 9.41761 11.3333H13.7681V9.33333C13.7681 9.15652 13.6991 8.98695 13.5761 8.86193C13.4532 8.7369 13.2864 8.66667 13.1125 8.66667H6.57627ZM16.3905 14H12.2354C11.9594 13.5149 11.6246 13.0669 11.2389 12.6667H15.7349C15.9088 12.6667 16.0756 12.7369 16.1985 12.8619C16.3214 12.987 16.3905 13.1565 16.3905 13.3333V14ZM6.5566 12C5.1656 12 3.83158 12.5619 2.848 13.5621C1.86442 14.5623 1.31184 15.9188 1.31184 17.3333C1.31184 18.7478 1.86442 20.1044 2.848 21.1046C3.83158 22.1048 5.1656 22.6667 6.5566 22.6667C7.9476 22.6667 9.28162 22.1048 10.2652 21.1046C11.2488 20.1044 11.8014 18.7478 11.8014 17.3333C11.8014 15.9188 11.2488 14.5623 10.2652 13.5621C9.28162 12.5619 7.9476 12 6.5566 12ZM16.3905 22C16.3905 21.8232 16.4596 21.6536 16.5825 21.5286C16.7055 21.4036 16.8722 21.3333 17.0461 21.3333C17.22 21.3333 17.3867 21.4036 17.5097 21.5286C17.6326 21.6536 17.7017 21.8232 17.7017 22C17.7017 22.1768 17.6326 22.3464 17.5097 22.4714C17.3867 22.5964 17.22 22.6667 17.0461 22.6667C16.8722 22.6667 16.7055 22.5964 16.5825 22.4714C16.4596 22.3464 16.3905 22.1768 16.3905 22Z" fill="#2B2C2B"/>
</svg>
