<svg width="24" height="24" viewBox="0 0 24 24" fill="none" xmlns="http://www.w3.org/2000/svg">
<path fill-rule="evenodd" clip-rule="evenodd" d="M4.55358 3.93899C4.28501 4.28872 4.21822 4.54034 4.21822 4.60325C4.21828 4.75808 4.17329 4.90912 4.08943 5.03559C4.00558 5.16206 3.88699 5.25773 3.74998 5.30945C2.99513 5.59236 2.23886 5.87095 1.4812 6.1452C1.52901 6.41255 1.60283 6.73457 1.71321 7.05059C1.99163 7.84516 2.35792 8.23757 2.8121 8.23757C3.74998 8.23757 4.61685 8.17092 5.23414 7.89384C5.52943 7.76128 5.73261 7.59578 5.86479 7.39807C5.99415 7.20561 6.09328 6.92778 6.09328 6.49642H7.4994C7.4994 7.18914 7.33418 7.78375 7.00937 8.26828C6.88158 8.45855 6.73102 8.63024 6.56152 8.77901C6.55356 9.7399 6.52003 10.7003 6.46098 11.6592L6.44692 11.9123C6.39841 12.811 6.37591 13.4333 6.43848 13.9238C6.49613 14.3769 6.62128 14.6667 6.85329 14.9176C7.10991 15.1947 7.54721 15.4778 8.33323 15.7938C8.46684 15.8475 8.58193 15.9432 8.66319 16.0683C8.74445 16.1934 8.78802 16.3419 8.78811 16.494C8.78811 17.3777 8.88091 18.1026 8.96388 18.7564C9.00536 19.0761 9.04403 19.3794 9.06863 19.676C9.10027 20.0594 9.12066 20.5522 8.94349 20.9618C8.83852 21.2103 8.65996 21.4152 8.43517 21.5452C8.21853 21.6643 7.97726 21.7235 7.73352 21.7174C7.70118 21.7174 7.59291 21.7407 7.42136 21.8942C7.24481 22.0584 7.09513 22.2528 6.97843 22.4693L6.97773 22.4716C7.27934 22.4753 7.55846 22.482 7.81437 22.488L8.33253 22.4985C8.88232 22.5083 9.25072 22.5 9.50945 22.4551C9.59 22.4441 9.66877 22.4214 9.74357 22.3877C9.75691 22.3811 9.76943 22.3728 9.78083 22.363C9.78224 22.3607 9.8427 22.2783 9.8427 21.9226V17.2429C9.84276 17.0854 9.8894 16.932 9.97598 16.8045C10.0626 16.6769 10.1847 16.5816 10.325 16.5322L16.1836 14.4645C16.3398 14.4093 16.5092 14.4143 16.6624 14.4784C16.8155 14.5426 16.9426 14.662 17.0217 14.8157C17.2516 15.2636 17.4519 15.674 17.6277 16.0334C17.7254 16.2341 17.8154 16.4184 17.8984 16.5846C18.1395 17.0669 18.3413 17.4346 18.5705 17.7596C19.0134 18.3849 19.6117 18.9241 20.9623 19.7157C21.046 19.7649 21.1195 19.8318 21.1781 19.9123C21.2367 19.9927 21.2793 20.0851 21.3033 20.1837C21.4087 20.6158 21.4277 21.033 21.2513 21.4179C21.117 21.7099 20.8808 21.9174 20.776 22.0095L20.7422 22.0395C20.6368 22.1368 20.5721 22.2095 20.5173 22.3338C20.499 22.3768 20.4835 22.4211 20.4709 22.4663H22.0288V19.2431L19.7502 13.9635L21.0277 13.3382L22.4662 16.6707C22.5561 15.9518 22.6159 15.1355 22.5857 14.3267C22.5442 13.1899 22.3291 12.1617 21.8573 11.4353C21.4172 10.7576 20.705 10.264 19.4514 10.264C18.8848 10.264 18.3265 10.2715 17.7831 10.279C17.0053 10.2947 16.2274 10.2962 15.4496 10.2835C14.2312 10.2551 13.0859 10.148 12.0377 9.81172C10.9753 9.47098 10.0206 8.89808 9.18182 7.95899C8.3501 7.02738 7.6597 5.76626 7.07475 4.08877C6.82587 3.37583 6.52988 3.1317 6.32599 3.04782C6.11226 2.95946 5.82893 2.97668 5.48232 3.14892C5.13782 3.32117 4.80105 3.61622 4.55428 3.93824L4.55358 3.93899ZM23.435 19.1802V23.2152C23.435 23.4138 23.3609 23.6043 23.229 23.7447C23.0972 23.8852 22.9184 23.9641 22.7319 23.9641H19.6855C19.4991 23.9641 19.3203 23.8852 19.1884 23.7447C19.0566 23.6043 18.9825 23.4138 18.9825 23.2152C18.9825 22.5809 19.0725 22.0941 19.2426 21.704C19.417 21.3026 19.6504 21.0659 19.8212 20.9079L19.9239 20.812C18.716 20.0714 18.0066 19.4513 17.4477 18.6605C17.1496 18.2396 16.9078 17.7888 16.6575 17.2893C16.5593 17.0921 16.462 16.8944 16.3657 16.6962C16.2715 16.503 16.1731 16.3008 16.0655 16.0836L11.2488 17.7836V21.9226C11.2488 22.4004 11.1778 22.8962 10.8825 23.2931C10.5774 23.7035 10.1422 23.8622 9.73654 23.9334C9.3358 24.003 8.84787 24.0053 8.31003 23.9963L7.76446 23.985C7.28553 23.9722 6.80648 23.9653 6.3274 23.9641C6.03914 23.9641 5.73331 23.8315 5.54841 23.5185C5.39444 23.2586 5.38741 22.9793 5.40147 22.8018C5.43029 22.4349 5.58426 22.0417 5.76425 21.7144C5.96255 21.3484 6.21762 21.0207 6.51863 20.7454C6.809 20.487 7.20904 20.2384 7.68079 20.2212V20.2182C7.68577 20.0815 7.68154 19.9446 7.66814 19.8085C7.65196 19.6191 7.62173 19.3794 7.58658 19.1001C7.51487 18.5294 7.42206 17.7963 7.39183 17.0047C6.74924 16.7112 6.2367 16.3832 5.85213 15.969C5.35999 15.4373 5.1336 14.8217 5.04502 14.1245C4.96065 13.4655 4.99651 12.6919 5.04361 11.827L5.05767 11.5738C5.09072 10.9628 5.12798 10.2783 5.14555 9.49719C4.38133 9.70238 3.53976 9.73533 2.8121 9.73533C1.39191 9.73533 0.702915 8.45325 0.395678 7.57331C0.253076 7.15635 0.146242 6.72648 0.0764882 6.28898C0.0470114 6.1087 0.023561 5.92735 0.0061819 5.74529L0.00336987 5.70935L0.00196351 5.69886V5.69362L0.702915 5.6382L0.475827 4.92901L0.795016 4.81294C1.49757 4.55667 2.1997 4.29905 2.90139 4.04009C3.0188 3.65442 3.23604 3.28896 3.46524 2.99091C3.82591 2.52136 4.32368 2.07353 4.88683 1.7927C5.44928 1.51337 6.14671 1.36808 6.83431 1.65191C7.53104 1.93948 8.05552 2.59999 8.39229 3.56755C8.93364 5.12148 9.53898 6.18638 10.2006 6.92778C10.8544 7.66018 11.5898 8.10502 12.4433 8.37836C13.3102 8.6562 14.3057 8.75954 15.4805 8.78725C16.1892 8.80372 16.9253 8.79324 17.7212 8.78201C18.2668 8.77452 18.8398 8.76703 19.4507 8.76703C21.1268 8.76703 22.2897 9.46798 23.0138 10.5838C23.7064 11.651 23.9454 13.0132 23.9911 14.2683C24.0382 15.5377 23.8906 16.792 23.7352 17.7169C23.6527 18.2088 23.5526 18.6965 23.435 19.1802ZM0.702915 5.63745L0.475827 4.92901C0.32852 4.9826 0.202075 5.086 0.116317 5.22438C0.0305601 5.36275 -0.00966005 5.52828 0.00196351 5.69362L0.702915 5.63745Z" fill="#2B2C2B"/>
<path fill-rule="evenodd" clip-rule="evenodd" d="M22.9948 0.219262C23.1266 0.359698 23.2006 0.550145 23.2006 0.748721C23.2006 0.947298 23.1266 1.13774 22.9948 1.27818L12.0973 12.8858C11.9655 13.0263 11.7867 13.1052 11.6003 13.1053H6.32733C6.14086 13.1053 5.96204 13.0264 5.83019 12.8859C5.69834 12.7455 5.62427 12.555 5.62427 12.3564C5.62427 12.1578 5.69834 11.9673 5.83019 11.8268C5.96204 11.6864 6.14086 11.6075 6.32733 11.6075H11.3092L22.0007 0.219262C22.1325 0.0788688 22.3113 0 22.4977 0C22.6841 0 22.8629 0.0788688 22.9948 0.219262Z" fill="#2B2C2B"/>
<path fill-rule="evenodd" clip-rule="evenodd" d="M10.8972 16.8502V11.9824H12.3033V16.8502H10.8972Z" fill="#2B2C2B"/>
</svg>
