<svg width="20" height="20" viewBox="0 0 20 20" fill="none" xmlns="http://www.w3.org/2000/svg">
<path d="M10 1V19M19 1.6V18.4C19 18.5591 18.9368 18.7117 18.8243 18.8243C18.7117 18.9368 18.5591 19 18.4 19H1.6C1.44087 19 1.28826 18.9368 1.17574 18.8243C1.06321 18.7117 1 18.5591 1 18.4V1.6C1 1.44087 1.06321 1.28826 1.17574 1.17574C1.28826 1.06321 1.44087 1 1.6 1H18.4C18.5591 1 18.7117 1.06321 18.8243 1.17574C18.9368 1.28826 19 1.44087 19 1.6Z" stroke="#2B2C2B" stroke-width="1.5" stroke-linecap="round" stroke-linejoin="round"/>
<path d="M4 10L5.5 8L7 10M13 10L14.5 12L16 10" stroke="#2B2C2B" stroke-width="1.5" stroke-linecap="round" stroke-linejoin="round"/>
</svg>
