<svg width="12" height="18" viewBox="0 0 12 18" fill="none" xmlns="http://www.w3.org/2000/svg">
<path d="M10 9H10.01M2 9H2.01M10 16H10.01M9 2C9 2.26522 9.10536 2.51957 9.29289 2.70711C9.48043 2.89464 9.73478 3 10 3C10.2652 3 10.5196 2.89464 10.7071 2.70711C10.8946 2.51957 11 2.26522 11 2C11 1.73478 10.8946 1.48043 10.7071 1.29289C10.5196 1.10536 10.2652 1 10 1C9.73478 1 9.48043 1.10536 9.29289 1.29289C9.10536 1.48043 9 1.73478 9 2ZM1 2C1 2.26522 1.10536 2.51957 1.29289 2.70711C1.48043 2.89464 1.73478 3 2 3C2.26522 3 2.51957 2.89464 2.70711 2.70711C2.89464 2.51957 3 2.26522 3 2C3 1.73478 2.89464 1.48043 2.70711 1.29289C2.51957 1.10536 2.26522 1 2 1C1.73478 1 1.48043 1.10536 1.29289 1.29289C1.10536 1.48043 1 1.73478 1 2ZM1 16C1 16.2652 1.10536 16.5196 1.29289 16.7071C1.48043 16.8946 1.73478 17 2 17C2.26522 17 2.51957 16.8946 2.70711 16.7071C2.89464 16.5196 3 16.2652 3 16C3 15.7348 2.89464 15.4804 2.70711 15.2929C2.51957 15.1054 2.26522 15 2 15C1.73478 15 1.48043 15.1054 1.29289 15.2929C1.10536 15.4804 1 15.7348 1 16Z" stroke="#2B2C2B" stroke-width="2" stroke-linecap="round" stroke-linejoin="round"/>
</svg>
