<svg width="18" height="19" viewBox="0 0 18 19" fill="none" xmlns="http://www.w3.org/2000/svg">
<path d="M15.75 13.25V6.5H5.25V13.25H15.75ZM15.75 2.75C16.1478 2.75 16.5294 2.90804 16.8107 3.18934C17.092 3.47064 17.25 3.85218 17.25 4.25V13.25C17.25 13.6478 17.092 14.0294 16.8107 14.3107C16.5294 14.592 16.1478 14.75 15.75 14.75H5.25C4.85218 14.75 4.47064 14.592 4.18934 14.3107C3.90804 14.0294 3.75 13.6478 3.75 13.25V4.25C3.75 3.85218 3.90804 3.47064 4.18934 3.18934C4.47064 2.90804 4.85218 2.75 5.25 2.75H6V1.25H7.5V2.75H13.5V1.25H15V2.75H15.75ZM2.25 16.25H12.75V17.75H2.25C1.85218 17.75 1.47064 17.592 1.18934 17.3107C0.908035 17.0294 0.75 16.6478 0.75 16.25V7.25H2.25V16.25ZM14.25 11.75H11.25V8.75H14.25V11.75Z" fill="white"/>
</svg>
