<svg width="30" height="30" viewBox="0 0 30 30" fill="none" xmlns="http://www.w3.org/2000/svg">
<rect x="0.5" y="0.5" width="29" height="29" rx="14.5" fill="#F7F7F7" stroke="#2B2C2B"/>
<path d="M12.5 16C12.8978 16 13.2794 16.158 13.5607 16.4393C13.842 16.7206 14 17.1022 14 17.5V21.5C14 21.8978 13.842 22.2794 13.5607 22.5607C13.2794 22.842 12.8978 23 12.5 23H8.5C8.10218 23 7.72064 22.842 7.43934 22.5607C7.15804 22.2794 7 21.8978 7 21.5V17.5C7 17.1022 7.15804 16.7206 7.43934 16.4393C7.72064 16.158 8.10218 16 8.5 16H12.5ZM21.5 16C21.8978 16 22.2794 16.158 22.5607 16.4393C22.842 16.7206 23 17.1022 23 17.5V21.5C23 21.8978 22.842 22.2794 22.5607 22.5607C22.2794 22.842 21.8978 23 21.5 23H17.5C17.1022 23 16.7206 22.842 16.4393 22.5607C16.158 22.2794 16 21.8978 16 21.5V17.5C16 17.1022 16.158 16.7206 16.4393 16.4393C16.7206 16.158 17.1022 16 17.5 16H21.5ZM12.5 17H8.5C8.36739 17 8.24021 17.0527 8.14645 17.1464C8.05268 17.2402 8 17.3674 8 17.5V21.5C8 21.6326 8.05268 21.7598 8.14645 21.8536C8.24021 21.9473 8.36739 22 8.5 22H12.5C12.6326 22 12.7598 21.9473 12.8536 21.8536C12.9473 21.7598 13 21.6326 13 21.5V17.5C13 17.3674 12.9473 17.2402 12.8536 17.1464C12.7598 17.0527 12.6326 17 12.5 17ZM21.5 17H17.5C17.3674 17 17.2402 17.0527 17.1464 17.1464C17.0527 17.2402 17 17.3674 17 17.5V21.5C17 21.6326 17.0527 21.7598 17.1464 21.8536C17.2402 21.9473 17.3674 22 17.5 22H21.5C21.6326 22 21.7598 21.9473 21.8536 21.8536C21.9473 21.7598 22 21.6326 22 21.5V17.5C22 17.3674 21.9473 17.2402 21.8536 17.1464C21.7598 17.0527 21.6326 17 21.5 17ZM12.5 7C12.8978 7 13.2794 7.15804 13.5607 7.43934C13.842 7.72064 14 8.10218 14 8.5V12.5C14 12.8978 13.842 13.2794 13.5607 13.5607C13.2794 13.842 12.8978 14 12.5 14H8.5C8.10218 14 7.72064 13.842 7.43934 13.5607C7.15804 13.2794 7 12.8978 7 12.5V8.5C7 8.10218 7.15804 7.72064 7.43934 7.43934C7.72064 7.15804 8.10218 7 8.5 7H12.5ZM21.5 7C21.8978 7 22.2794 7.15804 22.5607 7.43934C22.842 7.72064 23 8.10218 23 8.5V12.5C23 12.8978 22.842 13.2794 22.5607 13.5607C22.2794 13.842 21.8978 14 21.5 14H17.5C17.1022 14 16.7206 13.842 16.4393 13.5607C16.158 13.2794 16 12.8978 16 12.5V8.5C16 8.10218 16.158 7.72064 16.4393 7.43934C16.7206 7.15804 17.1022 7 17.5 7H21.5ZM12.5 8H8.5C8.36739 8 8.24021 8.05268 8.14645 8.14645C8.05268 8.24021 8 8.36739 8 8.5V12.5C8 12.6326 8.05268 12.7598 8.14645 12.8536C8.24021 12.9473 8.36739 13 8.5 13H12.5C12.6326 13 12.7598 12.9473 12.8536 12.8536C12.9473 12.7598 13 12.6326 13 12.5V8.5C13 8.36739 12.9473 8.24021 12.8536 8.14645C12.7598 8.05268 12.6326 8 12.5 8ZM21.5 8H17.5C17.3674 8 17.2402 8.05268 17.1464 8.14645C17.0527 8.24021 17 8.36739 17 8.5V12.5C17 12.6326 17.0527 12.7598 17.1464 12.8536C17.2402 12.9473 17.3674 13 17.5 13H21.5C21.6326 13 21.7598 12.9473 21.8536 12.8536C21.9473 12.7598 22 12.6326 22 12.5V8.5C22 8.36739 21.9473 8.24021 21.8536 8.14645C21.7598 8.05268 21.6326 8 21.5 8Z" fill="#2B2C2B"/>
</svg>
