<svg width="16" height="16" viewBox="0 0 16 16" fill="none" xmlns="http://www.w3.org/2000/svg">
<path d="M3.89536 3.04591C4.98399 1.95729 6.46048 1.3457 8.00003 1.3457C9.53958 1.3457 11.0161 1.95729 12.1047 3.04591C13.1933 4.13454 13.8049 5.61103 13.8049 7.15058C13.8049 8.69013 13.1933 10.1666 12.1047 11.2552L11.3134 12.0379C10.73 12.6099 9.97336 13.3459 9.0427 14.2459C8.76298 14.5164 8.38912 14.6676 8.00003 14.6676C7.61094 14.6676 7.23708 14.5164 6.95736 14.2459L4.63003 11.9819C4.3367 11.6946 4.0927 11.4526 3.89536 11.2552C3.35631 10.7162 2.9287 10.0763 2.63696 9.37202C2.34522 8.66774 2.19507 7.91289 2.19507 7.15058C2.19507 6.38826 2.34522 5.63341 2.63696 4.92913C2.9287 4.22485 3.35631 3.58493 3.89536 3.04591ZM11.3974 3.75258C10.9511 3.30639 10.4214 2.95246 9.83837 2.711C9.25536 2.46955 8.6305 2.34529 7.99946 2.34532C7.36842 2.34535 6.74357 2.46967 6.16058 2.71119C5.5776 2.9527 5.04788 3.30668 4.6017 3.75291C4.15551 4.19914 3.80158 4.72889 3.56012 5.3119C3.31866 5.89491 3.1944 6.51978 3.19443 7.15081C3.19447 7.78185 3.31879 8.4067 3.5603 8.98969C3.80182 9.57268 4.1558 10.1024 4.60203 10.5486L5.59403 11.5272C6.13936 12.0612 6.82603 12.7279 7.6527 13.5272C7.74591 13.6173 7.87044 13.6676 8.00003 13.6676C8.12962 13.6676 8.25415 13.6173 8.34736 13.5272L10.6107 11.3272C10.924 11.0199 11.186 10.7606 11.3974 10.5486C12.2984 9.64753 12.8045 8.42548 12.8045 7.15124C12.8045 5.87701 12.2984 4.65495 11.3974 3.75391V3.75258ZM8.00003 5.33324C8.26285 5.33324 8.52309 5.38501 8.76591 5.48559C9.00872 5.58616 9.22935 5.73358 9.41519 5.91942C9.60103 6.10526 9.74844 6.32589 9.84902 6.5687C9.9496 6.81151 10.0014 7.07176 10.0014 7.33458C10.0014 7.5974 9.9496 7.85764 9.84902 8.10046C9.74844 8.34327 9.60103 8.56389 9.41519 8.74973C9.22935 8.93558 9.00872 9.08299 8.76591 9.18357C8.52309 9.28415 8.26285 9.33591 8.00003 9.33591C7.47566 9.32634 6.97599 9.11131 6.60854 8.73709C6.24109 8.36288 6.03522 7.85937 6.03522 7.33491C6.03522 6.81045 6.24109 6.30695 6.60854 5.93273C6.97599 5.55851 7.47566 5.34348 8.00003 5.33391V5.33324ZM8.00003 6.33324C7.73446 6.33324 7.47977 6.43874 7.29198 6.62653C7.10419 6.81432 6.9987 7.06901 6.9987 7.33458C6.9987 7.60015 7.10419 7.85484 7.29198 8.04263C7.47977 8.23041 7.73446 8.33591 8.00003 8.33591C8.26104 8.32917 8.50909 8.22076 8.69132 8.03377C8.87355 7.84678 8.97553 7.59601 8.97553 7.33491C8.97553 7.07382 8.87355 6.82305 8.69132 6.63606C8.50909 6.44907 8.26104 6.34065 8.00003 6.33391V6.33324Z" fill="#2B2C2B"/>
</svg>
