<svg width="91" height="44" viewBox="0 0 91 44" fill="none" xmlns="http://www.w3.org/2000/svg">
<g filter="url(#filter0_d_217_1886)">
<rect x="4.39331" y="0.393308" width="82.2134" height="35.2134" rx="11.4059" fill="#2B2C2B" stroke="#2B2C2B" stroke-width="0.786616"/>
<rect x="52.3171" y="3.31709" width="30.8305" height="29.2572" rx="9.1223" fill="white" stroke="#2B2C2B" stroke-width="0.634171"/>
<path fill-rule="evenodd" clip-rule="evenodd" d="M63.895 12.8945C63.895 11.8337 64.3164 10.8162 65.0666 10.0661C65.8167 9.31596 66.8342 8.89453 67.895 8.89453C68.9559 8.89453 69.9733 9.31596 70.7234 10.0661C71.4736 10.8162 71.895 11.8337 71.895 12.8945C71.895 13.9554 71.4736 14.9728 70.7234 15.723C69.9733 16.4731 68.9559 16.8945 67.895 16.8945C66.8342 16.8945 65.8167 16.4731 65.0666 15.723C64.3164 14.9728 63.895 13.9554 63.895 12.8945ZM63.895 18.8945C62.5689 18.8945 61.2972 19.4213 60.3595 20.359C59.4218 21.2967 58.895 22.5684 58.895 23.8945C58.895 24.6902 59.2111 25.4532 59.7737 26.0159C60.3363 26.5785 61.0994 26.8945 61.895 26.8945H73.895C74.6907 26.8945 75.4537 26.5785 76.0163 26.0159C76.5789 25.4532 76.895 24.6902 76.895 23.8945C76.895 22.5684 76.3682 21.2967 75.4306 20.359C74.4929 19.4213 73.2211 18.8945 71.895 18.8945H63.895Z" fill="#2B2C2B"/>
<path d="M17 18H35" stroke="white" stroke-width="2" stroke-linecap="round" stroke-linejoin="round"/>
<path d="M17 12H35" stroke="white" stroke-width="2" stroke-linecap="round" stroke-linejoin="round"/>
<path d="M17 24H35" stroke="white" stroke-width="2" stroke-linecap="round" stroke-linejoin="round"/>
</g>
<defs>
<filter id="filter0_d_217_1886" x="0" y="0" width="91" height="44" filterUnits="userSpaceOnUse" color-interpolation-filters="sRGB">
<feFlood flood-opacity="0" result="BackgroundImageFix"/>
<feColorMatrix in="SourceAlpha" type="matrix" values="0 0 0 0 0 0 0 0 0 0 0 0 0 0 0 0 0 0 127 0" result="hardAlpha"/>
<feOffset dy="4"/>
<feGaussianBlur stdDeviation="2"/>
<feComposite in2="hardAlpha" operator="out"/>
<feColorMatrix type="matrix" values="0 0 0 0 0 0 0 0 0 0 0 0 0 0 0 0 0 0 0.25 0"/>
<feBlend mode="normal" in2="BackgroundImageFix" result="effect1_dropShadow_217_1886"/>
<feBlend mode="normal" in="SourceGraphic" in2="effect1_dropShadow_217_1886" result="shape"/>
</filter>
</defs>
</svg>
