<svg width="79" height="73" viewBox="0 0 79 73" fill="none" xmlns="http://www.w3.org/2000/svg">
<path d="M29.7318 17.8575C33.8924 10.1761 44.9159 10.1761 49.0765 17.8576L70.0127 56.5111C73.9825 63.8404 68.6757 72.75 60.3404 72.75H59.3267C55.3593 72.75 51.7004 70.6101 49.7553 67.1522L49.2324 66.2226C45.0948 58.8668 34.3883 59.2178 30.7413 66.8288C29.0074 70.4474 25.3508 72.75 21.3381 72.75H18.4679C10.1326 72.75 4.82578 63.8404 8.7956 56.5111L29.7318 17.8575Z" fill="black"/>
<path d="M39.788 30.822C44.83 31.4355 48.9615 26.8804 47.8658 21.9254C47.7669 21.1114 48.8755 20.7566 49.2645 21.4882L68.6674 57.9769C70.8846 62.1465 69.0335 67.3194 64.6744 69.1357L63.1304 69.779C61.9881 70.255 60.7629 70.5 59.5254 70.5C56.4344 70.5 53.5408 68.9687 51.6946 66.4689C49.6852 63.748 47.0155 60.3084 44.8536 58.1464C42.2603 55.5532 38.2115 51.9221 35.6719 49.6778C34.0765 48.268 32.0998 47.317 29.943 47.1547C28.07 47.0137 25.6214 46.9507 23.475 47.2948C22.7051 47.4182 21.9842 47.6889 21.3133 48.0019L14.0457 51.3924L14.2571 51.8455L14.0457 51.3924C13.9426 51.4405 13.8301 51.4655 13.7163 51.4655C13.1165 51.4655 12.7417 50.816 13.0418 50.2966L21.8409 35.0687C23.9461 31.4253 28.0233 29.3906 32.2004 29.8988L39.788 30.822Z" fill="white" stroke="black"/>
</svg>
