<svg width="16" height="21" viewBox="0 0 16 21" fill="none" xmlns="http://www.w3.org/2000/svg">
<path d="M0 10.5C0 10.6326 0.0526785 10.7598 0.146447 10.8536C0.240215 10.9473 0.367392 11 0.5 11H9.293L6.646 13.646C6.59951 13.6924 6.56262 13.7475 6.53744 13.8082C6.51225 13.8689 6.49927 13.9339 6.49922 13.9996C6.49913 14.1323 6.55175 14.2596 6.6455 14.3535C6.73925 14.4474 6.86646 14.5002 6.99915 14.5003C7.13183 14.5004 7.25911 14.4478 7.353 14.354L10.853 10.854C10.9467 10.7602 10.9994 10.6331 10.9994 10.5005C10.9994 10.3679 10.9467 10.2408 10.853 10.147L7.353 6.647C7.2587 6.55592 7.1324 6.50552 7.0013 6.50666C6.8702 6.5078 6.74479 6.56039 6.65209 6.65309C6.55939 6.74579 6.5068 6.8712 6.50566 7.0023C6.50452 7.1334 6.55492 7.2597 6.646 7.354L9.293 10H0.5C0.367392 10 0.240215 10.0527 0.146447 10.1464C0.0526785 10.2402 0 10.3674 0 10.5ZM13.5 0.5H2.5C1.83712 0.50053 1.20154 0.764092 0.732818 1.23282C0.264092 1.70154 0.000529668 2.33712 0 3V7C0 7.13261 0.0526785 7.25979 0.146447 7.35355C0.240215 7.44732 0.367392 7.5 0.5 7.5C0.632608 7.5 0.759785 7.44732 0.853553 7.35355C0.947321 7.25979 1 7.13261 1 7V3C1 2.60218 1.15804 2.22064 1.43934 1.93934C1.72064 1.65804 2.10218 1.5 2.5 1.5H13.5C13.8978 1.5 14.2794 1.65804 14.5607 1.93934C14.842 2.22064 15 2.60218 15 3V18C15 18.3978 14.842 18.7794 14.5607 19.0607C14.2794 19.342 13.8978 19.5 13.5 19.5H2.5C2.10218 19.5 1.72064 19.342 1.43934 19.0607C1.15804 18.7794 1 18.3978 1 18V14C1 13.8674 0.947321 13.7402 0.853553 13.6464C0.759785 13.5527 0.632608 13.5 0.5 13.5C0.367392 13.5 0.240215 13.5527 0.146447 13.6464C0.0526785 13.7402 0 13.8674 0 14V18C0.000529668 18.6629 0.264092 19.2985 0.732818 19.7672C1.20154 20.2359 1.83712 20.4995 2.5 20.5H13.5C14.1629 20.4995 14.7985 20.2359 15.2672 19.7672C15.7359 19.2985 15.9995 18.6629 16 18V3C15.9995 2.33712 15.7359 1.70154 15.2672 1.23282C14.7985 0.764092 14.1629 0.50053 13.5 0.5Z" fill="white"/>
</svg>
