<svg width="30" height="30" viewBox="0 0 30 30" fill="none" xmlns="http://www.w3.org/2000/svg">
<rect x="0.5" y="0.5" width="29" height="29" rx="14.5" fill="#F7F7F7" stroke="#2B2C2B"/>
<path d="M22.73 8.05757C22.8112 8.09965 22.8793 8.1632 22.927 8.24131C22.9746 8.31942 22.9998 8.4091 23 8.50057V18.5006C23 18.587 22.9776 18.6719 22.9351 18.7471C22.8925 18.8223 22.8311 18.8852 22.757 18.9296L17.757 21.9296C17.6817 21.9747 17.5958 21.9992 17.5081 22.0006C17.4203 22.002 17.3337 21.9802 17.257 21.9376L12.747 19.4316C12.6738 19.3851 12.589 19.3603 12.5023 19.3599C12.4156 19.3595 12.3306 19.3837 12.257 19.4296L12.243 19.4376L7.743 21.9376C7.66689 21.9799 7.58104 22.0016 7.49396 22.0006C7.40688 21.9995 7.32158 21.9757 7.24652 21.9316C7.17145 21.8874 7.10922 21.8244 7.06598 21.7488C7.02274 21.6732 7 21.5877 7 21.5006V12.0006C6.99991 11.9201 7.01922 11.8409 7.0563 11.7695C7.09338 11.6981 7.14714 11.6367 7.213 11.5906L12.213 8.09057C12.2971 8.03162 12.3973 8 12.5 8C12.6027 8 12.7029 8.03162 12.787 8.09057L17.5 11.3906L22.213 8.09057C22.2881 8.03819 22.376 8.00741 22.4674 8.00159C22.5587 7.99577 22.6499 8.01514 22.731 8.05757H22.73ZM8 12.2606V20.6506L11.75 18.5676C11.831 18.5196 11.915 18.4796 12 18.4486V9.46057L8 12.2606ZM13.248 18.5666L17.004 20.6526L17 12.2606L13 9.46057V18.4506C13.085 18.4806 13.168 18.5196 13.248 18.5666ZM18.004 20.6156L22 18.2176V9.46057L18 12.2606L18.004 20.6156Z" fill="#2B2C2B"/>
</svg>
