<svg width="34" height="40" viewBox="0 0 34 40" fill="none" xmlns="http://www.w3.org/2000/svg">
<path d="M32.014 24.98C33.322 22.5237 34.0041 19.7828 34 17C34 7.611 26.389 0 17 0C7.61102 0 2.49377e-05 7.611 2.49377e-05 17C-0.00685669 21.0103 1.41072 24.8927 4.00002 27.955L4.02003 27.98C4.02703 27.986 4.03302 27.994 4.03802 28H4.00002L14.088 38.71C14.462 39.107 14.9132 39.4233 15.4139 39.6394C15.9146 39.8556 16.4542 39.9672 16.9995 39.9672C17.5449 39.9672 18.0845 39.8556 18.5852 39.6394C19.0859 39.4233 19.5371 39.107 19.911 38.71L30 28H29.962L29.978 27.981L29.98 27.979C30.052 27.893 30.124 27.807 30.195 27.719C30.8886 26.8665 31.4981 25.9489 32.015 24.979L32.014 24.98ZM17.004 23.5C15.4127 23.5 13.8866 22.8679 12.7614 21.7426C11.6362 20.6174 11.004 19.0913 11.004 17.5C11.004 15.9087 11.6362 14.3826 12.7614 13.2574C13.8866 12.1321 15.4127 11.5 17.004 11.5C18.5953 11.5 20.1214 12.1321 21.2467 13.2574C22.3719 14.3826 23.004 15.9087 23.004 17.5C23.004 19.0913 22.3719 20.6174 21.2467 21.7426C20.1214 22.8679 18.5953 23.5 17.004 23.5Z" fill="url(#paint0_linear_217_1601)"/>
<defs>
<linearGradient id="paint0_linear_217_1601" x1="12" y1="4.5" x2="14.5" y2="31.5" gradientUnits="userSpaceOnUse">
<stop stop-color="#FF7A00"/>
<stop offset="1" stop-color="#FFAD61"/>
</linearGradient>
</defs>
</svg>
