<svg width="18" height="19" viewBox="0 0 18 19" fill="none" xmlns="http://www.w3.org/2000/svg">
<g clip-path="url(#clip0_217_1849)">
<path d="M9 11.75C10.2426 11.75 11.25 10.7426 11.25 9.5C11.25 8.25736 10.2426 7.25 9 7.25C7.75736 7.25 6.75 8.25736 6.75 9.5C6.75 10.7426 7.75736 11.75 9 11.75Z" stroke="white" stroke-linecap="round" stroke-linejoin="round"/>
<path d="M14.5505 11.75C14.4507 11.9762 14.4209 12.2271 14.465 12.4704C14.5091 12.7137 14.6251 12.9382 14.798 13.115L14.843 13.16C14.9825 13.2993 15.0931 13.4647 15.1686 13.6468C15.2441 13.8289 15.2829 14.0241 15.2829 14.2213C15.2829 14.4184 15.2441 14.6136 15.1686 14.7957C15.0931 14.9778 14.9825 15.1432 14.843 15.2825C14.7037 15.422 14.5382 15.5326 14.3561 15.6081C14.1741 15.6836 13.9789 15.7224 13.7817 15.7224C13.5846 15.7224 13.3894 15.6836 13.2073 15.6081C13.0252 15.5326 12.8598 15.422 12.7205 15.2825L12.6755 15.2375C12.4987 15.0646 12.2742 14.9486 12.0309 14.9045C11.7876 14.8604 11.5367 14.8902 11.3105 14.99C11.0887 15.0851 10.8995 15.2429 10.7662 15.4442C10.633 15.6454 10.5615 15.8812 10.5605 16.1225V16.25C10.5605 16.6478 10.4025 17.0294 10.1211 17.3107C9.83984 17.592 9.45831 17.75 9.06049 17.75C8.66266 17.75 8.28113 17.592 7.99983 17.3107C7.71852 17.0294 7.56049 16.6478 7.56049 16.25V16.1825C7.55468 15.9343 7.47433 15.6935 7.32987 15.4915C7.18542 15.2896 6.98354 15.1357 6.75049 15.05C6.52428 14.9502 6.27334 14.9204 6.03005 14.9645C5.78675 15.0086 5.56225 15.1246 5.38549 15.2975L5.34049 15.3425C5.20118 15.482 5.03575 15.5926 4.85365 15.6681C4.67155 15.7436 4.47636 15.7824 4.27924 15.7824C4.08211 15.7824 3.88692 15.7436 3.70483 15.6681C3.52273 15.5926 3.3573 15.482 3.21799 15.3425C3.07852 15.2032 2.96789 15.0378 2.8924 14.8557C2.81691 14.6736 2.77806 14.4784 2.77806 14.2812C2.77806 14.0841 2.81691 13.8889 2.8924 13.7068C2.96789 13.5247 3.07852 13.3593 3.21799 13.22L3.26299 13.175C3.43589 12.9982 3.55188 12.7737 3.59599 12.5304C3.64011 12.2871 3.61032 12.0362 3.51049 11.81C3.41542 11.5882 3.25755 11.399 3.05634 11.2657C2.85512 11.1325 2.61933 11.061 2.37799 11.06H2.25049C1.85266 11.06 1.47113 10.902 1.18983 10.6207C0.908524 10.3394 0.750488 9.95782 0.750488 9.56C0.750488 9.16218 0.908524 8.78064 1.18983 8.49934C1.47113 8.21804 1.85266 8.06 2.25049 8.06H2.31799C2.56623 8.05419 2.80699 7.97384 3.00896 7.82938C3.21093 7.68493 3.36478 7.48305 3.45049 7.25C3.55032 7.02379 3.58011 6.77286 3.53599 6.52956C3.49188 6.28626 3.37589 6.06176 3.20299 5.885L3.15799 5.84C3.01852 5.70069 2.90789 5.53526 2.8324 5.35316C2.75691 5.17106 2.71806 4.97587 2.71806 4.77875C2.71806 4.58163 2.75691 4.38644 2.8324 4.20434C2.90789 4.02224 3.01852 3.85681 3.15799 3.7175C3.2973 3.57804 3.46273 3.4674 3.64483 3.39191C3.82692 3.31642 4.02212 3.27757 4.21924 3.27757C4.41636 3.27757 4.61155 3.31642 4.79365 3.39191C4.97575 3.4674 5.14118 3.57804 5.28049 3.7175L5.32549 3.7625C5.50225 3.9354 5.72675 4.05139 5.97005 4.0955C6.21334 4.13962 6.46428 4.10984 6.69049 4.01H6.75049C6.97232 3.91493 7.1615 3.75707 7.29476 3.55585C7.42801 3.35463 7.49953 3.11884 7.50049 2.8775V2.75C7.50049 2.35218 7.65852 1.97064 7.93983 1.68934C8.22113 1.40804 8.60266 1.25 9.00049 1.25C9.39831 1.25 9.77984 1.40804 10.0611 1.68934C10.3425 1.97064 10.5005 2.35218 10.5005 2.75V2.8175C10.5015 3.05884 10.573 3.29463 10.7062 3.49585C10.8395 3.69707 11.0287 3.85493 11.2505 3.95C11.4767 4.04984 11.7276 4.07962 11.9709 4.0355C12.2142 3.99139 12.4387 3.8754 12.6155 3.7025L12.6605 3.6575C12.7998 3.51804 12.9652 3.4074 13.1473 3.33191C13.3294 3.25642 13.5246 3.21757 13.7217 3.21757C13.9189 3.21757 14.1141 3.25642 14.2961 3.33191C14.4782 3.4074 14.6437 3.51804 14.783 3.6575C14.9225 3.79681 15.0331 3.96224 15.1086 4.14434C15.1841 4.32644 15.2229 4.52163 15.2229 4.71875C15.2229 4.91587 15.1841 5.11106 15.1086 5.29316C15.0331 5.47526 14.9225 5.64069 14.783 5.78L14.738 5.825C14.5651 6.00176 14.4491 6.22626 14.405 6.46956C14.3609 6.71285 14.3907 6.96379 14.4905 7.19V7.25C14.5856 7.47183 14.7434 7.66101 14.9446 7.79427C15.1459 7.92753 15.3816 7.99904 15.623 8H15.7505C16.1483 8 16.5298 8.15804 16.8111 8.43934C17.0925 8.72064 17.2505 9.10218 17.2505 9.5C17.2505 9.89782 17.0925 10.2794 16.8111 10.5607C16.5298 10.842 16.1483 11 15.7505 11H15.683C15.4416 11.001 15.2059 11.0725 15.0046 11.2057C14.8034 11.339 14.6456 11.5282 14.5505 11.75Z" stroke="white" stroke-linecap="round" stroke-linejoin="round"/>
</g>
<defs>
<clipPath id="clip0_217_1849">
<rect width="18" height="18" fill="white" transform="translate(0 0.5)"/>
</clipPath>
</defs>
</svg>
