<svg width="17" height="16" viewBox="0 0 17 16" fill="none" xmlns="http://www.w3.org/2000/svg">
<path d="M3.79459 6.56485L5.62471 8.91115M8.00621 3.25656L9.84806 5.60287M2.34692 7.70281L9.93487 1.75023C10.2985 1.46499 10.7148 1.25417 11.1599 1.12981C11.6051 1.00544 12.0704 0.969971 12.5292 1.02542C12.988 1.08087 13.4315 1.22615 13.8342 1.45297C14.2369 1.67979 14.5909 1.98371 14.8762 2.34737L16.02 3.8056C16.1151 3.92684 16.1853 4.06562 16.2267 4.21401C16.2682 4.36241 16.28 4.51751 16.2614 4.67046C16.2429 4.8234 16.1944 4.97121 16.1188 5.10543C16.0432 5.23964 15.9418 5.35765 15.8206 5.4527L4.54072 14.3006C4.41947 14.3957 4.28069 14.4659 4.1323 14.5073C3.98391 14.5488 3.82881 14.5606 3.67586 14.542C3.52291 14.5235 3.3751 14.4751 3.24089 14.3994C3.10667 14.3238 2.98866 14.2224 2.89361 14.1012L1.74979 12.643C1.46461 12.2792 1.25387 11.8629 1.1296 11.4177C1.00533 10.9725 0.969961 10.5072 1.02552 10.0484C1.08108 9.58953 1.22647 9.14612 1.4534 8.74346C1.68033 8.34081 1.98435 7.98679 2.3481 7.70163L2.34692 7.70281Z" stroke="#2B2C2B" stroke-width="1.17315" stroke-linecap="round" stroke-linejoin="round"/>
</svg>
